<svg xmlns="http://www.w3.org/2000/svg" width="539.15" height="291.25" viewbox="0 0 539.15 291.25">
  <path fill="#DCD1C6" d="M175.9 230.7L3.5 56.5 48.4 7.4 186.8 208z"/>
  <path fill="#DCD1C6" d="M265.5 45.6L22.9 190 86 230.6 273 66z"/>
  <path fill="#D80E26" d="M405 230.6L296.9 2.1h-36.1l107.5 228.5z"/>
  <path fill="#B7C30A" d="M327.2 164.7h-29.9c-15.7 0-28.1 1.3-37.3 3.8s-15.9 5.5-19.9 8.9l44-95.2c-2.5-4.4-18.4-36.7-18.4-36.7L176 230.7h35.5l5.7-10.5c1.2-2.4 3.5-4.9 6.9-7.5 3.4-2.6 7.9-5 13.5-7.2s12.4-4 20.3-5.4c7.9-1.4 17-2.1 27.3-2.1h56c-.1-.2-14.5-32.4-14-33.3z"/>
  <path d="M177.32 276.09l-3.02 9.05h-8.03l14.86-41.4h7.98l14.86 41.4h-8.43l-10.25-30.8-.46-2.11-.5 2.22-4.85 14.75-.68 1.14.85-.12h4.33a4 4 0 0 1 2.16.57 6.4 6.4 0 0 1 1.6 1.43c.45.56.84 1.2 1.17 1.9.32.7.57 1.36.77 1.97h-12.36zm51.48-27.22c-2.28 0-4.3.42-6.04 1.28a13.4 13.4 0 0 0-4.41 3.41 14.53 14.53 0 0 0-2.7 4.99 19.3 19.3 0 0 0 0 11.67 15.5 15.5 0 0 0 2.64 4.95c1.16 1.45 2.6 2.6 4.33 3.48 1.73.87 3.73 1.31 6 1.31a18.44 18.44 0 0 0 5.47-.63v-13.38h7.24v17.09a33.9 33.9 0 0 1-9.98 2.62 25.61 25.61 0 0 1-12.23-1.48 19.76 19.76 0 0 1-11.51-11.36 22.58 22.58 0 0 1-1.54-8.35c0-3 .54-5.8 1.6-8.4a20.05 20.05 0 0 1 4.56-6.8 21.48 21.48 0 0 1 7.14-4.59 25.12 25.12 0 0 1 9.43-1.68 32.34 32.34 0 0 1 12.02 2.5l-2.11 5.47c-2.17-.83-4.03-1.4-5.58-1.68s-3-.42-4.33-.42zm48.12 6.77a11.1 11.1 0 0 1-5.64 9.97l-1.59.62c.15.08.36.18.63.29.26.11.47.23.62.34 1.14.99 2.03 2.16 2.68 3.5.65 1.35 1.2 2.81 1.68 4.39.47 1.58.95 3.25 1.42 5.01s1.13 3.56 1.97 5.38h-8.37a23.82 23.82 0 0 1-1.63-4.64c-.4-1.65-.82-3.25-1.28-4.81-.45-1.56-.98-3-1.6-4.33a8.59 8.59 0 0 0-2.5-3.24c-.8.07-1.64.08-2.53.02-.9-.05-1.83-.23-2.82-.54.23-.53.48-1.09.77-1.68.28-.59.63-1.14 1.02-1.65.4-.51.86-.94 1.37-1.28a4 4 0 0 1 1.74-.63 5.9 5.9 0 0 0 4.01-2.08 6.98 6.98 0 0 0 1.68-4.64c0-.98-.2-1.9-.62-2.73a6.95 6.95 0 0 0-1.68-2.16c-.7-.61-1.54-1.09-2.51-1.43s-2-.51-3.1-.51c-.54 0-.98 0-1.34.03l-1.06.05c-.34.02-.7.06-1.08.12-.38.06-.82.1-1.3.14v36h-8.21v-40.9c1.52-.26 2.87-.48 4.04-.65a67.49 67.49 0 0 1 6.04-.6 66.3 66.3 0 0 1 2.9-.06c2.24 0 4.35.29 6.33.86 1.97.57 3.7 1.4 5.18 2.47s2.65 2.42 3.5 3.99a11.1 11.1 0 0 1 1.28 5.38zm26.03 30.3c-3.3 0-6.23-.55-8.77-1.65a18.79 18.79 0 0 1-6.47-4.53 19.25 19.25 0 0 1-4.01-6.8 25.84 25.84 0 0 1-1.37-8.55c0-2.96.47-5.75 1.4-8.37.93-2.62 2.27-4.9 4.04-6.86a18.78 18.78 0 0 1 6.46-4.61 21.42 21.42 0 0 1 8.72-1.68c3.72 0 6.88.64 9.48 1.93a18.6 18.6 0 0 1 6.38 5.04c1.65 2.07 2.85 4.39 3.59 6.95s1.1 5.1 1.1 7.6c0 2.82-.45 5.51-1.36 8.1s-2.23 4.86-3.96 6.85c-1.73 2-3.87 3.6-6.43 4.79a20.6 20.6 0 0 1-8.8 1.79zm0-37.19a10.39 10.39 0 0 0-8.91 4.67 15.85 15.85 0 0 0-2.28 5.01 22.83 22.83 0 0 0 0 11.76 16.33 16.33 0 0 0 2.28 5.01 12 12 0 0 0 3.73 3.53c1.48.9 3.2 1.34 5.18 1.34 1.56 0 3.06-.35 4.5-1.05a11.4 11.4 0 0 0 3.81-3.05 15.48 15.48 0 0 0 2.65-4.9c.66-1.93 1-4.15 1-6.66 0-2.24-.28-4.32-.83-6.23a15.41 15.41 0 0 0-2.36-4.96 11.25 11.25 0 0 0-3.76-3.27 10.4 10.4 0 0 0-5.01-1.2zm24.55-5.01h8.2v35.54h14.92v5.86h-23.13v-41.4zm36.33 32.35l-3.02 9.05h-8.03l14.86-41.4h7.98l14.86 41.4h-8.43l-10.25-30.8-.46-2.11-.5 2.22-4.85 14.75-.68 1.14.85-.12h4.33a4 4 0 0 1 2.16.57 6.4 6.4 0 0 1 1.6 1.43c.45.56.84 1.2 1.17 1.9.32.7.57 1.36.76 1.97h-12.35zm39.47-19.94l-.92-2.05.12 1.94v29.1h-6.95v-41.4h7.86l17.48 27.85.8 2.28-.12-2.28v-27.85h7.24v41.4h-7.23l-18.29-28.99zm49.88 23.81a11.01 11.01 0 0 0 9.51-4.96 15.43 15.43 0 0 0 2.25-5 22.7 22.7 0 0 0-.17-11.85c-.6-1.9-1.52-3.53-2.77-4.9a12.9 12.9 0 0 0-4.83-3.22 19.14 19.14 0 0 0-7.05-1.17 26 26 0 0 0-4.91.46v35.82h-7.98v-40.66c2.55-.53 4.92-.91 7.12-1.14a56.6 56.6 0 0 1 5.81-.34c3.8 0 7.19.48 10.17 1.45s5.5 2.36 7.57 4.19 3.65 4.05 4.73 6.69a23.63 23.63 0 0 1 1.62 9.02c0 3-.51 5.81-1.54 8.43s-2.43 4.9-4.2 6.84a19.16 19.16 0 0 1-6.42 4.55 19.68 19.68 0 0 1-8.05 1.65c-.54 0-1.02 0-1.46-.02-.43-.02-.9-.07-1.4-.15a28.83 28.83 0 0 1-3.76-.8c.24-.49.52-1.02.86-1.59.34-.57.74-1.1 1.2-1.6.45-.49.98-.9 1.6-1.22a4.4 4.4 0 0 1 2.1-.48zm24.61-36.22h24.83v5.87h-16.7v29.67h17.6v5.86H477.8v-41.4zm10.3 22.55a18 18 0 0 1 .74-1.94c.3-.68.69-1.3 1.14-1.87.46-.57 1-1.04 1.63-1.4a4.32 4.32 0 0 1 2.19-.54h6.89v5.75h-12.59zm32.92-17.59a6.3 6.3 0 0 0-4.1 1.25c-1.03.83-1.54 1.9-1.54 3.19s.48 2.4 1.45 3.36a18.4 18.4 0 0 0 3.6 2.67c1.41.84 2.97 1.7 4.66 2.57s3.25 1.87 4.67 3.01a15.9 15.9 0 0 1 3.59 4.05 10.47 10.47 0 0 1 1.45 5.64c0 1.82-.35 3.44-1.05 4.86a10.03 10.03 0 0 1-2.96 3.6 13.9 13.9 0 0 1-4.59 2.21 21.4 21.4 0 0 1-5.92.77 28.9 28.9 0 0 1-5.67-.65 32.79 32.79 0 0 1-7.15-2.48l2.17-5.3a24.48 24.48 0 0 0 10.65 2.57c1.02 0 1.96-.14 2.82-.43a7.3 7.3 0 0 0 2.22-1.17 5.37 5.37 0 0 0 1.45-1.7 4.92 4.92 0 0 0-.91-5.64 17.07 17.07 0 0 0-3.59-2.77 80.39 80.39 0 0 0-4.64-2.53c-1.65-.83-3.2-1.8-4.64-2.88a14.86 14.86 0 0 1-3.59-3.81 9.46 9.46 0 0 1-1.42-5.27c0-1.86.33-3.47 1-4.84a9.23 9.23 0 0 1 2.7-3.36 11.87 11.87 0 0 1 3.98-1.96c1.52-.44 3.14-.66 4.85-.66a36.4 36.4 0 0 1 5.1.37c.88.13 1.81.32 2.78.57.97.25 2.06.56 3.28.94l-2.11 5.18c-1.7-.5-3.25-.84-4.61-1.05a25.93 25.93 0 0 0-3.93-.31z" fill="#403233"/>
</svg>